<svg width="125" height="184" viewBox="0 0 125 184" fill="none" xmlns="http://www.w3.org/2000/svg">
<path fill-rule="evenodd" clip-rule="evenodd" d="M5.83913 138.548C5.77012 132.069 5.10939 67.8876 5.84482 52.0304C6.6196 35.3247 20.8076 3.6717 56.1102 0.1547C74.8137 -1.31072 113.682 7.01284 119.527 52.0304V131.156C122.596 134.232 124.495 138.483 124.495 143.179C124.495 152.568 116.906 160.178 107.545 160.178C98.1834 160.178 90.5947 152.568 90.5947 143.179C90.5947 138.192 92.7362 133.707 96.1472 130.597V74.0117C95.855 69.9085 90.7996 65.8053 85.0421 65.8053C79.2846 65.8053 73.937 70.7878 73.937 74.5978V153.458C77.348 156.567 79.4895 161.053 79.4895 166.04C79.4895 175.428 71.9008 183.039 62.5395 183.039C53.1783 183.039 45.5896 175.428 45.5896 166.04C45.5896 161.197 47.6092 156.826 50.8499 153.73V95.1137C50.8499 91.0105 44.1284 86.0281 39.4525 86.0281C34.7767 86.0281 28.0551 90.4243 28.0551 95.1137C27.7781 103.449 28.2889 135.488 28.3428 138.799C31.7566 141.909 33.8999 146.396 33.8999 151.386C33.8999 160.774 26.3112 168.384 16.95 168.384C7.58876 168.384 0 160.774 0 151.386C0 146.26 2.26185 141.665 5.83913 138.548ZM100.138 143.179C100.138 147.282 103.454 150.607 107.545 150.607C111.635 150.607 114.951 147.282 114.951 143.179C114.951 139.077 111.635 135.751 107.545 135.751C103.454 135.751 100.138 139.077 100.138 143.179ZM16.95 158.319C13.1316 158.319 10.0361 155.215 10.0361 151.386C10.0361 147.556 13.1316 144.452 16.95 144.452C20.7684 144.452 23.8638 147.556 23.8638 151.386C23.8638 155.215 20.7684 158.319 16.95 158.319ZM62.5395 173.468C58.449 173.468 55.1329 170.142 55.1329 166.04C55.1329 161.937 58.449 158.612 62.5395 158.612C66.6301 158.612 69.9462 161.937 69.9462 166.04C69.9462 170.142 66.6301 173.468 62.5395 173.468Z" fill="url(#paint0_linear_7_29)"/>
<defs>
<linearGradient id="paint0_linear_7_29" x1="110.175" y1="-22.8605" x2="-4.57973" y2="170.871" gradientUnits="userSpaceOnUse">
<stop stop-color="#F5BF5A"/>
<stop offset="0.395741" stop-color="#D6637D"/>
<stop offset="1" stop-color="#0A0097"/>
</linearGradient>
</defs>
</svg>
